<?xml version="1.0" ?><svg viewBox="0 0 64 64" xmlns="http://www.w3.org/2000/svg"><defs><style>.cls-1{fill:#eee;}.cls-2{fill:none;}.cls-2,.cls-3,.cls-4,.cls-5,.cls-6,.cls-8,.cls-9{stroke:#4c241d;stroke-linecap:round;stroke-linejoin:round;stroke-width:2px;}.cls-3{fill:#6b4f5b;}.cls-4{fill:#bf7e68;}.cls-5{fill:#b5a19c;}.cls-6{fill:#ffce56;}.cls-7{fill:#4c241d;}.cls-8{fill:#a9ba5a;}.cls-9{fill:#9dc1e4;}</style></defs><g id="study"><circle class="cls-1" cx="27.5" cy="36.5" r="21.5"/><line class="cls-2" x1="50.0569" x2="52.8853" y1="32.2067" y2="35.0352"/><line class="cls-2" x1="52.8853" x2="50.0569" y1="32.2067" y2="35.0352"/><rect class="cls-3" height="11" transform="translate(-15.7462 39.4289) rotate(-45)" width="3" x="38.2218" y="33.2218"/><rect class="cls-4" height="22" rx="1.3649" transform="translate(-20.579 51.0962) rotate(-45)" width="5" x="48.8891" y="39.3891"/><circle class="cls-5" cx="23" cy="22" r="19"/><circle class="cls-6" cx="23" cy="22" r="15"/><circle class="cls-7" cx="57.5532" cy="23.2188" r="1.0691"/><polyline class="cls-2" points="35 26 46 26 51 21"/><rect class="cls-8" height="3" rx="1.5" width="14" x="47" y="14"/><rect class="cls-9" height="3" rx="1.5" width="8" x="47" y="8"/><polyline class="cls-2" points="25 19 22 19 22 25"/><line class="cls-2" x1="25" x2="22" y1="22" y2="22"/><polyline class="cls-2" points="19 23 15 19 15 25"/><line class="cls-2" x1="19" x2="19" y1="19" y2="25"/><line class="cls-2" x1="28" x2="32" y1="19" y2="19"/><line class="cls-2" x1="30" x2="30" y1="25" y2="19"/><circle class="cls-2" cx="22" cy="53" r="2"/></g></svg>