<?xml version="1.0" ?><svg style="enable-background:new 0 0 512 512;" version="1.1" viewBox="0 0 512 512" xml:space="preserve" xmlns="http://www.w3.org/2000/svg" xmlns:xlink="http://www.w3.org/1999/xlink"><style type="text/css">
	.st0{display:none;}
	.st1{fill:#FFE2D2;}
	.st2{fill:#FFDE83;}
	.st3{fill:#F57070;}
	.st4{fill:#DBDBEF;}
	.st5{fill:#BCE2FF;}
	.st6{fill:#48446D;}
	.st7{fill:#6E78FF;}
	.st8{fill:#FFBE83;}
	.st9{fill:#F5949E;}
	.st10{fill:#D0FF67;}
	.st11{fill:#C69C6D;}
	.st12{fill:#C5BDD3;}
	.st13{fill:#FFE2B8;}
	.st14{fill:#F54670;}
</style><g class="st0" id="Layer_1"/><g id="Layer_2"><g><path class="st4" d="M344.54,92.65l-5.33,5.33c-0.33-0.37-0.67-0.73-1-1.1c-0.27-0.28-0.52-0.57-0.79-0.86    c-0.61-0.65-1.23-1.3-1.86-1.94c-0.12-0.12-0.24-0.25-0.36-0.38c-0.75-0.75-1.5-1.48-2.26-2.21c-0.28-0.27-0.56-0.52-0.83-0.78    c-0.39-0.36-0.77-0.73-1.16-1.08l5.28-5.28c2.29-2.29,6.02-2.29,8.31,0C346.83,86.64,346.83,90.36,344.54,92.65z"/><path class="st2" d="M200.86,75.22c0,0.01-0.01,0.01-0.02,0.01c-1.09,0.63-2.17,1.28-3.25,1.94c-0.34,0.21-0.68,0.43-1.02,0.65    c-0.74,0.47-1.49,0.95-2.22,1.44l-1.11,0.75c-0.4,0.27-0.79,0.54-1.19,0.81l-6.38-6.37c-7.74-7.74-20.34-7.74-28.11,0    c-7.74,7.75-7.74,20.35,0,28.1l6.54,6.54c-0.28,0.42-0.56,0.83-0.83,1.25c-0.25,0.36-0.49,0.73-0.72,1.09    c-0.49,0.76-0.97,1.51-1.44,2.28c-0.21,0.33-0.42,0.66-0.62,1c-0.64,1.06-1.26,2.13-1.86,3.21c-0.02,0.03-0.03,0.06-0.05,0.08    l-8.23-8.23c-5.67-5.68-8.8-13.23-8.8-21.26c0-8.05,3.13-15.6,8.8-21.27c5.68-5.69,13.24-8.82,21.27-8.82    c8.03,0,15.58,3.13,21.25,8.82L200.86,75.22z"/><path class="st4" d="M222.35,221.43c0.03,0.5,0.04,0.8,0.03,1.16c-0.08,2.66,0.9,5.2,2.78,7.14c1.87,1.94,4.39,3,7.1,3h47.48    c2.71,0,5.23-1.06,7.1-3c1.88-1.94,2.86-4.48,2.78-7.15c-0.01-0.36,0-0.65,0.03-1.14c0.04-0.8,0.12-2.48,0.12-4.81    c0-18.28-4.39-48.94-33.77-48.94s-33.77,30.66-33.77,48.94C222.23,218.94,222.31,220.62,222.35,221.43z M256,176.74    c12.29,0,22.29,10,22.29,22.28c0,12.29-10,22.29-22.29,22.29s-22.29-10-22.29-22.29C233.71,186.74,243.71,176.74,256,176.74z"/><path class="st2" d="M370.45,88.51c0,8.03-3.13,15.58-8.8,21.26l-8.23,8.23c-0.01-0.01-0.02-0.02-0.02-0.03    c-0.61-1.1-1.24-2.18-1.89-3.26c-0.2-0.34-0.41-0.67-0.62-1.01c-0.47-0.76-0.94-1.51-1.43-2.26c-0.24-0.37-0.48-0.73-0.73-1.1    c-0.27-0.42-0.55-0.83-0.83-1.25l6.54-6.54c3.87-3.87,5.8-8.96,5.8-14.05c0-5.09-1.93-10.18-5.81-14.06    c-7.76-7.73-20.36-7.73-28.1,0.01l-6.38,6.38c-0.4-0.28-0.8-0.55-1.2-0.83c-0.36-0.24-0.72-0.49-1.08-0.73    c-0.76-0.51-1.54-1.01-2.31-1.5c-0.31-0.19-0.61-0.39-0.92-0.58c-1.09-0.67-2.19-1.33-3.31-1.97l7.99-7.99    c5.68-5.68,13.23-8.81,21.26-8.81c8.03,0,15.59,3.13,21.27,8.81C367.32,72.91,370.45,80.47,370.45,88.51z"/><path class="st11" d="M180.22,316.11c-0.26,1.48-0.76,2.79-1.54,3.93c-0.24,0.35-0.52,0.68-0.81,0.99    c-1.43,1.53-3.45,2.66-6.07,3.34c-10.1,2.66-25.43-1.68-39.06-11.08c-9.33-6.41-15.51-13.17-17.88-19.52    c-1.92-5.13-1.33-9.84,1.8-14.39c3.82-5.53,9.57-8.3,16.39-8.3c6.86,0,14.81,2.81,22.96,8.42c12.66,8.71,21.85,20.43,23.96,30.58    C180.44,312.32,180.52,314.34,180.22,316.11z"/><path class="st11" d="M184.57,407.48c-0.16,3.66-1.18,7.81-3.07,12.25c-1.94,4.55-4.69,9.15-8.09,13.57    c-3.4,4.42-7.45,8.67-11.98,12.53c-8.37,7.14-12.47,7.9-14.17,7.72c-2.88-0.3-5.99-4.36-9.59-9.05c-1.5-1.96-3.06-3.99-4.83-6.06    c-1.77-2.08-3.52-3.93-5.22-5.73c-4.07-4.3-7.58-8.01-7.43-10.9c0.09-1.71,1.5-5.64,9.87-12.77c9.23-7.88,19.68-13.49,29.44-15.81    c0.01-0.01,0.01-0.01,0.02-0.01c0.12-0.03,0.22-0.05,0.33-0.07c0.6-0.14,1.19-0.26,1.77-0.37c0.28-0.05,0.55-0.1,0.83-0.15    c0.43-0.07,0.86-0.14,1.28-0.19c0.28-0.04,0.55-0.08,0.83-0.11c0.46-0.06,0.91-0.1,1.36-0.13c0.2-0.02,0.41-0.04,0.62-0.06    c0.62-0.03,1.24-0.05,1.84-0.06c0.18,0,0.36,0.01,0.54,0.01c0.47,0.01,0.93,0.02,1.38,0.05c0.21,0.02,0.41,0.03,0.61,0.05    c0.48,0.04,0.96,0.09,1.42,0.16c0.12,0.02,0.24,0.03,0.35,0.05c0.57,0.09,1.12,0.21,1.66,0.34c0.13,0.03,0.25,0.07,0.38,0.11    c0.42,0.11,0.82,0.23,1.21,0.37c0.14,0.05,0.28,0.1,0.42,0.15c0.45,0.18,0.89,0.36,1.31,0.57c0.04,0.02,0.08,0.03,0.11,0.05    c0.45,0.23,0.88,0.48,1.29,0.75c0.11,0.07,0.21,0.15,0.32,0.22c0.3,0.21,0.59,0.43,0.86,0.67c0.11,0.09,0.22,0.18,0.32,0.27    c0.33,0.3,0.65,0.61,0.94,0.95c0.01,0.02,0.03,0.03,0.05,0.05C183.77,399.51,184.77,403.15,184.57,407.48z"/><path class="st2" d="M333.6,336.95c-0.36-0.14-0.71-0.29-1.07-0.44c-0.19-0.08-0.38-0.15-0.56-0.24    c-1.34-0.59-2.61-1.29-3.79-2.07c-0.15-0.1-0.29-0.2-0.44-0.31c-0.43-0.29-0.85-0.6-1.25-0.92c-0.18-0.14-0.35-0.28-0.52-0.43    c-0.36-0.3-0.71-0.61-1.05-0.94c-0.18-0.16-0.35-0.32-0.52-0.49c-0.32-0.33-0.63-0.67-0.94-1.01c-0.15-0.18-0.31-0.35-0.46-0.53    c-0.33-0.4-0.63-0.81-0.93-1.23c-0.1-0.12-0.2-0.24-0.29-0.38c-0.4-0.58-0.77-1.18-1.11-1.8c-0.05-0.07-0.09-0.15-0.13-0.22    c-0.31-0.57-0.6-1.15-0.86-1.74l-0.18-0.42c-0.23-0.57-0.45-1.15-0.65-1.75c-0.05-0.15-0.09-0.3-0.14-0.46    c-0.18-0.59-0.35-1.19-0.48-1.81c-0.03-0.12-0.05-0.25-0.08-0.37c-0.12-0.57-0.21-1.15-0.29-1.73c-0.03-0.16-0.05-0.32-0.07-0.47    c-0.07-0.64-0.12-1.28-0.15-1.93c-0.01-0.19-0.02-0.37-0.02-0.56c-0.02-0.65-0.02-1.31,0.01-1.98c0.01-0.18,0.02-0.35,0.03-0.53    c0.04-0.7,0.1-1.4,0.18-2.12c0.01-0.03,0.01-0.06,0.01-0.09c-2.8-4.8-5.37-9.25-7.66-13.24c-4.92-8.54-9.04-15.69-12.71-21.4    c-0.18,0.08-0.37,0.14-0.56,0.22c-0.86,0.34-1.73,0.66-2.61,0.98c-0.4,0.15-0.81,0.31-1.22,0.45c-1.27,0.45-2.55,0.88-3.83,1.28    c-10.68,3.36-21.88,5.07-33.26,5.07s-22.58-1.71-33.28-5.08c-1.27-0.39-2.55-0.82-3.82-1.27c-0.41-0.14-0.81-0.3-1.22-0.45    c-0.87-0.32-1.74-0.64-2.6-0.98c-0.19-0.08-0.38-0.14-0.56-0.22c-3.67,5.71-7.79,12.86-12.71,21.4    c-2.29,3.99-4.86,8.44-7.66,13.24v0.09c0.1,0.72,0.15,1.44,0.19,2.15c0.01,0.16,0.02,0.32,0.03,0.48    c0.03,0.68,0.03,1.36,0.01,2.03c0,0.16-0.01,0.33-0.02,0.5c-0.03,0.67-0.08,1.33-0.15,1.99c-0.02,0.12-0.04,0.25-0.06,0.38    c-0.08,0.64-0.19,1.27-0.32,1.89c-0.01,0.07-0.03,0.14-0.04,0.21c-0.15,0.66-0.33,1.31-0.52,1.95c-0.04,0.11-0.07,0.23-0.11,0.35    c-0.2,0.62-0.44,1.24-0.69,1.84c-0.04,0.11-0.09,0.21-0.14,0.32c-0.27,0.62-0.56,1.22-0.89,1.82c-0.03,0.05-0.06,0.1-0.09,0.16    c-0.35,0.62-0.72,1.23-1.13,1.82c-0.07,0.12-0.17,0.22-0.25,0.33c-0.31,0.45-0.64,0.88-0.99,1.3c-0.12,0.15-0.26,0.3-0.39,0.45    c-0.33,0.38-0.67,0.75-1.02,1.1c-0.15,0.15-0.3,0.29-0.44,0.43c-0.37,0.35-0.75,0.69-1.15,1.02c-0.14,0.12-0.29,0.24-0.44,0.36    c-0.44,0.35-0.9,0.68-1.37,1.01c-0.11,0.07-0.21,0.15-0.33,0.23c-1.19,0.79-2.48,1.49-3.85,2.1c-0.14,0.06-0.28,0.12-0.42,0.18    c-0.39,0.16-0.77,0.33-1.17,0.48c-4.41,8.27-7.8,16.04-10.09,23.16c-1.15,3.57-4.89,5.56-8.47,4.6c-0.11-0.03-0.23-0.05-0.34-0.09    c-0.05-0.02-0.1-0.03-0.14-0.05c-0.16-0.05-0.31-0.12-0.47-0.19c0,0.02,0,0.03-0.01,0.05c-1.59,5.3-3.01,10.46-4.23,15.34    c-0.02,0.09-0.04,0.18-0.06,0.27c0.18-0.05,0.37-0.1,0.55-0.15c0.19-0.05,0.37-0.09,0.55-0.14c0.2-0.05,0.4-0.1,0.6-0.15    c7.65-1.81,14.74-1.97,20.87-0.56c0.01,0,0.01,0,0.02,0.01c0.75,0.17,1.49,0.37,2.22,0.59c4.12,1.25,7.73,3.28,10.7,6.03    c0.74,0.68,1.45,1.38,2.1,2.15c0.06,0.07,0.11,0.15,0.17,0.22c0.38,0.45,0.74,0.91,1.08,1.38c0.15,0.2,0.28,0.41,0.42,0.62    c0.24,0.36,0.48,0.72,0.71,1.09c0.14,0.23,0.27,0.47,0.41,0.72c0.2,0.36,0.4,0.72,0.58,1.09c0.13,0.25,0.25,0.49,0.36,0.75    c0.19,0.39,0.35,0.79,0.51,1.19c0.1,0.23,0.2,0.47,0.29,0.71c0.18,0.5,0.35,1,0.5,1.51c0.05,0.16,0.11,0.31,0.16,0.46    c0.19,0.67,0.35,1.35,0.5,2.03c0.04,0.21,0.07,0.43,0.11,0.64c0.1,0.49,0.18,0.99,0.25,1.49c0.04,0.27,0.07,0.54,0.1,0.81    c0.05,0.46,0.1,0.93,0.13,1.39c0.02,0.29,0.04,0.57,0.05,0.86c0.02,0.48,0.03,0.97,0.04,1.46v0.82c-0.01,0.56-0.04,1.14-0.08,1.72    c-0.01,0.19-0.01,0.39-0.03,0.59c-0.06,0.79-0.14,1.58-0.25,2.39c-0.02,0.11-0.04,0.23-0.06,0.35c-0.1,0.68-0.21,1.38-0.35,2.08    c-0.04,0.24-0.1,0.49-0.15,0.74c-0.12,0.58-0.25,1.16-0.4,1.75c-0.07,0.27-0.14,0.54-0.21,0.81c-0.07,0.28-0.13,0.54-0.21,0.82    c18.6,6.1,41.1,6.95,59.17,6.95c11.87,0,27.43-0.34,42.5-2.93c3.81-0.66,7.43,1.9,8.09,5.71c0.03,0.16,0.03,0.32,0.04,0.48    c0.02,0.16,0.05,0.33,0.05,0.5c0.01,0.17,0,0.34-0.01,0.51c0.04-0.01,0.07-0.01,0.11-0.02c4.29-0.83,7.96-2.24,10.91-4.17    c-0.02-0.03-0.03-0.05-0.04-0.08c-0.01-0.01-0.02-0.03-0.03-0.05c-0.05-0.11-0.09-0.22-0.14-0.33c-0.07-0.16-0.12-0.32-0.19-0.48    c-2.25-5.53-3.52-10.88-3.79-15.89c-0.45-8.08,1.65-15.24,6.29-20.69c0.05-0.05,0.09-0.09,0.13-0.14c0.4-0.45,0.81-0.89,1.23-1.32    c0.15-0.14,0.3-0.28,0.45-0.42c0.34-0.33,0.69-0.64,1.05-0.95c0.16-0.14,0.34-0.28,0.51-0.42c0.36-0.3,0.74-0.58,1.12-0.86    c0.17-0.12,0.33-0.24,0.5-0.35c0.47-0.33,0.96-0.63,1.45-0.93c0.09-0.05,0.17-0.1,0.25-0.15c0.58-0.34,1.18-0.65,1.79-0.95    c0.19-0.09,0.38-0.17,0.56-0.25c0.43-0.2,0.87-0.39,1.31-0.57c0.25-0.1,0.51-0.2,0.77-0.29c0.39-0.15,0.79-0.28,1.19-0.41    c0.28-0.09,0.56-0.18,0.85-0.27c0.41-0.12,0.83-0.23,1.25-0.33c0.28-0.07,0.55-0.15,0.83-0.21c0.66-0.15,1.33-0.28,2.01-0.39    c0.31-0.05,0.63-0.08,0.95-0.13c0.41-0.05,0.82-0.11,1.24-0.15c0.36-0.04,0.73-0.07,1.1-0.1c0.39-0.03,0.78-0.05,1.18-0.07    c0.38-0.02,0.75-0.03,1.13-0.04c0.42-0.01,0.85-0.01,1.28-0.01c0.36,0.01,0.71,0.01,1.07,0.02c0.67,0.02,1.35,0.06,2.04,0.11    c0.1,0,0.19,0,0.28,0.01C346.69,366.72,342.1,352.87,333.6,336.95z M278.2,391.02c-0.11,0.1-0.23,0.21-0.37,0.32    c-0.23,0.21-0.49,0.43-0.76,0.65l-0.19,0.16c-0.47,0.4-0.92,0.78-1.38,1.13c-0.39,0.29-0.77,0.55-1.16,0.82    c-0.53,0.35-1.01,0.67-1.5,0.97c-0.4,0.24-0.81,0.47-1.22,0.7c-0.52,0.28-1.05,0.55-1.58,0.81c-0.42,0.19-0.81,0.37-1.21,0.54    c-0.58,0.25-1.17,0.47-1.75,0.68l-0.14,0.05c-0.34,0.12-0.68,0.24-1.02,0.35c-0.63,0.19-1.27,0.37-1.92,0.52l-0.19,0.05    c-0.29,0.08-0.58,0.15-0.87,0.21c-0.79,0.17-1.54,0.28-2.17,0.37l-0.1,0.01c-0.26,0.05-0.52,0.08-0.78,0.11    c-1.05,0.12-2.05,0.18-3.04,0.2h-0.48c-0.79,0-1.67-0.04-2.61-0.11c-0.26-0.02-0.51-0.06-0.76-0.09l-0.1-0.01    c-0.58-0.07-1.36-0.16-2.2-0.31c-0.28-0.05-0.57-0.11-0.86-0.18l-0.19-0.04c-0.65-0.14-1.3-0.3-1.95-0.48    c-0.33-0.09-0.66-0.2-0.99-0.31l-0.14-0.04c-0.61-0.2-1.21-0.41-1.8-0.64c-0.39-0.16-0.79-0.32-1.19-0.5    c-0.56-0.25-1.1-0.5-1.64-0.78c-0.41-0.21-0.82-0.42-1.22-0.65c-0.51-0.29-1-0.6-1.5-0.91l-0.1-0.07    c-0.38-0.24-0.75-0.48-1.12-0.75c-0.47-0.33-0.93-0.69-1.39-1.06l-0.21-0.17c-0.27-0.21-0.53-0.41-0.78-0.63    c-0.13-0.11-0.26-0.21-0.38-0.32c-20.04-17.83-30.31-34.87-30.53-50.64c-0.12-8.49,3.07-16.53,9-22.62    c5.92-6.09,13.86-9.51,22.35-9.63c0.16,0,0.31-0.01,0.46-0.01c7.01,0,13.67,2.27,19.13,6.41c5.45-4.38,12.22-6.85,19.39-6.95    c8.5-0.15,16.53,3.07,22.62,9c6.09,5.92,9.51,13.86,9.63,22.35C307.51,355.3,297.73,372.62,278.2,391.02z"/><path class="st4" d="M181.05,89.63c-0.41,0.37-0.81,0.75-1.21,1.13c-0.25,0.24-0.51,0.47-0.76,0.71    c-0.77,0.74-1.53,1.48-2.28,2.24c-0.1,0.1-0.19,0.2-0.29,0.3c-0.65,0.66-1.29,1.33-1.93,2.01c-0.26,0.29-0.53,0.58-0.79,0.87    c-0.33,0.36-0.67,0.72-1,1.09l-5.33-5.33c-2.29-2.29-2.29-6.01,0-8.3c1.15-1.14,2.65-1.72,4.16-1.72c1.5,0,3.01,0.58,4.15,1.72    L181.05,89.63z"/><path class="st3" d="M244.42,381.05c0.08,0.06,0.16,0.13,0.24,0.2c0.15,0.13,0.27,0.22,0.39,0.32l0.27,0.2    c0.28,0.23,0.53,0.43,0.79,0.62c0.19,0.14,0.38,0.26,0.57,0.38l0.11,0.07c0.27,0.17,0.55,0.35,0.83,0.51    c0.22,0.12,0.45,0.24,0.68,0.36c0.31,0.16,0.61,0.3,0.92,0.44c0.21,0.09,0.43,0.18,0.65,0.27c0.34,0.13,0.68,0.25,1.01,0.36    l0.16,0.05c0.16,0.05,0.32,0.11,0.48,0.15c0.36,0.1,0.73,0.19,1.09,0.26l0.32,0.08c0.09,0.02,0.18,0.04,0.27,0.06    c0.41,0.07,0.82,0.12,1.23,0.16c0.16,0.02,0.31,0.04,0.46,0.06l0.1,0.01c0.55,0.05,1.11,0.07,1.64,0.06h0.1    c0.45-0.01,1.02-0.05,1.64-0.11l0.03-0.01c0.15-0.03,0.29-0.05,0.44-0.07c0.41-0.06,0.82-0.12,1.22-0.2l0.6-0.15    c0.36-0.09,0.72-0.18,1.08-0.29c0.17-0.06,0.33-0.12,0.49-0.17l0.15-0.06c0.33-0.11,0.66-0.24,0.99-0.38    c0.21-0.09,0.44-0.19,0.66-0.3c0.28-0.13,0.58-0.29,0.87-0.45c0.24-0.13,0.47-0.25,0.7-0.39c0.27-0.16,0.54-0.35,0.81-0.53    c0.26-0.18,0.47-0.32,0.67-0.47c0.25-0.19,0.49-0.4,0.74-0.6l0.3-0.26c0.11-0.09,0.22-0.18,0.33-0.28    c0.1-0.09,0.19-0.17,0.28-0.25c16.24-15.33,24.72-29.49,24.56-40.97c-0.06-4.75-1.98-9.2-5.39-12.52    c-3.41-3.31-7.89-5.06-12.66-5.03c-5.48,0.07-10.55,2.63-13.9,7.01c-1.3,1.7-3.31,2.72-5.46,2.75h-0.1c-2.11,0-4.11-0.95-5.44-2.6    c-3.47-4.28-8.61-6.68-14.08-6.61c-4.75,0.06-9.2,1.98-12.51,5.39c-3.32,3.41-5.11,7.91-5.04,12.66    C218.87,352.27,227.76,366.19,244.42,381.05z"/><path class="st11" d="M397.14,293.77c-2.37,6.35-8.55,13.11-17.88,19.52c0,0,0,0,0,0.01c-13.63,9.39-28.96,13.73-39.09,11.06    c-2.18-0.57-3.96-1.45-5.32-2.63c-0.59-0.52-1.11-1.08-1.54-1.71c-0.43-0.62-0.78-1.3-1.05-2.02c-0.8-2.19-0.88-4.84-0.23-7.93    c2.11-10.14,11.3-21.86,23.96-30.58c8.15-5.61,16.1-8.41,22.96-8.41c6.82,0,12.57,2.77,16.38,8.3    C398.47,283.93,399.06,288.64,397.14,293.77z"/><path class="st11" d="M391.81,421.81c0.15,2.89-3.36,6.6-7.43,10.9c-1.7,1.8-3.45,3.65-5.22,5.73c-1.77,2.07-3.33,4.1-4.83,6.06    c-3.6,4.69-6.71,8.75-9.59,9.05c-1.71,0.18-5.81-0.59-14.17-7.72c-9.07-7.72-16.19-16.99-20.07-26.1c-1.4-3.3-2.32-6.44-2.77-9.34    c-0.88-5.62,0.02-10.32,2.73-13.49c0-0.01,0.01-0.02,0.02-0.03c0.3-0.34,0.63-0.67,0.97-0.98c0.09-0.08,0.19-0.16,0.28-0.24    c0.3-0.25,0.6-0.49,0.92-0.71c0.09-0.06,0.18-0.13,0.27-0.19c0.83-0.54,1.76-1.01,2.76-1.39c0.11-0.04,0.23-0.08,0.35-0.12    c0.42-0.15,0.85-0.29,1.3-0.41c0.1-0.03,0.2-0.06,0.31-0.08c0.55-0.14,1.11-0.26,1.7-0.35c0.08-0.02,0.18-0.03,0.26-0.04    c0.49-0.07,1-0.13,1.51-0.17c0.19-0.02,0.38-0.03,0.56-0.05c0.47-0.03,0.95-0.04,1.44-0.05c0.17,0,0.33-0.01,0.5-0.01    c0.61,0.01,1.23,0.03,1.86,0.06c0.19,0.02,0.4,0.04,0.6,0.06c0.45,0.03,0.91,0.07,1.37,0.13c0.28,0.03,0.55,0.07,0.83,0.11    c0.42,0.05,0.85,0.12,1.28,0.19c0.27,0.05,0.55,0.1,0.83,0.15c0.57,0.11,1.15,0.23,1.74,0.36c0.12,0.03,0.24,0.05,0.36,0.08    c0,0,0.01,0,0.02,0.01c9.76,2.32,20.21,7.93,29.44,15.81C390.31,416.17,391.72,420.1,391.81,421.81z"/><path class="st3" d="M256,207.31c4.57,0,8.29-3.72,8.29-8.29c0-4.56-3.72-8.28-8.29-8.28s-8.29,3.72-8.29,8.28    C247.71,203.59,251.43,207.31,256,207.31z"/><path class="st6" d="M327.72,159.09c-1.27,0.96-2.75,1.42-4.22,1.42c-2.12,0-4.21-0.95-5.59-2.77c-2.41-3.18-6.05-6.99-9.74-7.11    c-4.09-0.11-8.48,3.99-11.5,7.47c-2.53,2.92-6.95,3.24-9.87,0.71c-2.92-2.54-3.24-6.96-0.71-9.88    c7.28-8.41,14.84-12.55,22.53-12.29c7.39,0.24,14.27,4.49,20.45,12.65C331.41,152.37,330.8,156.76,327.72,159.09z"/><path class="st6" d="M224.85,156.35c-1.27,0.95-2.75,1.42-4.23,1.42c-2.11,0-4.2-0.96-5.58-2.77c-2.41-3.18-6.05-7-9.75-7.12    c-4.05-0.16-8.48,3.99-11.49,7.47c-2.53,2.92-6.95,3.24-9.87,0.71c-2.93-2.53-3.24-6.95-0.71-9.87    c7.28-8.41,14.82-12.55,22.53-12.3c7.39,0.24,14.27,4.5,20.45,12.65C228.53,149.62,227.93,154.01,224.85,156.35z"/><path class="st6" d="M256,221.31c12.29,0,22.29-10,22.29-22.29c0-12.28-10-22.28-22.29-22.28s-22.29,10-22.29,22.28    C233.71,211.31,243.71,221.31,256,221.31z M256,190.74c4.57,0,8.29,3.72,8.29,8.28c0,4.57-3.72,8.29-8.29,8.29    s-8.29-3.72-8.29-8.29C247.71,194.46,251.43,190.74,256,190.74z"/><path class="st6" d="M165.58,209.47c0,0.46-0.05,0.92-0.14,1.37c-0.09,0.44-0.22,0.89-0.4,1.31c-0.17,0.42-0.39,0.83-0.64,1.21    c-0.26,0.38-0.55,0.74-0.87,1.06c-0.32,0.32-0.68,0.62-1.07,0.87c-0.38,0.25-0.78,0.47-1.2,0.64c-0.1,0.04-0.21,0.07-0.32,0.11    c-0.16,0.05-0.32,0.12-0.48,0.16c-0.16,0.05-0.33,0.1-0.49,0.13c-0.01,0-0.01,0-0.02,0c-0.45,0.09-0.92,0.14-1.37,0.14    c-1.85,0-3.65-0.75-4.95-2.05c-0.32-0.32-0.62-0.68-0.87-1.06s-0.47-0.79-0.64-1.21c-0.18-0.42-0.31-0.87-0.4-1.31    c-0.09-0.45-0.14-0.91-0.14-1.37s0.05-0.92,0.14-1.37c0.09-0.44,0.22-0.88,0.4-1.31c0.17-0.42,0.39-0.83,0.64-1.21    s0.55-0.74,0.87-1.06c0.44-0.45,0.95-0.8,1.49-1.1c0.15-0.08,0.29-0.18,0.45-0.25c0.15-0.07,0.31-0.12,0.47-0.18    c1.23-0.49,2.59-0.65,3.91-0.38c0.44,0.09,0.88,0.22,1.31,0.4c0.42,0.17,0.82,0.39,1.2,0.64c0.39,0.25,0.75,0.55,1.07,0.87    c0.32,0.32,0.61,0.68,0.87,1.06c0.25,0.38,0.47,0.79,0.64,1.21c0.18,0.43,0.31,0.87,0.4,1.31    C165.53,208.55,165.58,209.01,165.58,209.47z"/><path class="st6" d="M256,153.69c-29.91,0-47.77,23.53-47.77,62.94c0,2.66,0.09,4.58,0.14,5.5l0.01,0.19    c-0.15,6.33,2.29,12.56,6.71,17.14c4.54,4.69,10.63,7.27,17.17,7.27h47.48c6.54,0,12.63-2.58,17.17-7.27    c4.42-4.58,6.86-10.81,6.71-17.13l0.01-0.18c0.05-0.93,0.14-2.84,0.14-5.52C303.77,177.22,285.91,153.69,256,153.69z     M289.65,221.44c-0.03,0.49-0.04,0.78-0.03,1.14c0.08,2.67-0.9,5.21-2.78,7.15c-1.87,1.94-4.39,3-7.1,3h-47.48    c-2.71,0-5.23-1.06-7.1-3c-1.88-1.94-2.86-4.48-2.78-7.14c0.01-0.36,0-0.66-0.03-1.16c-0.04-0.81-0.12-2.49-0.12-4.8    c0-18.28,4.39-48.94,33.77-48.94s33.77,30.66,33.77,48.94C289.77,218.96,289.69,220.64,289.65,221.44z"/><path class="st6" d="M306.63,428.52c-0.01-0.16-0.01-0.32-0.04-0.48c-0.66-3.81-4.28-6.37-8.09-5.71    c-15.07,2.59-30.63,2.93-42.5,2.93c-18.07,0-40.57-0.85-59.17-6.95c0.08-0.28,0.14-0.54,0.21-0.82c0.07-0.27,0.14-0.54,0.21-0.81    c0.15-0.59,0.28-1.17,0.4-1.75c0.05-0.25,0.11-0.5,0.15-0.74c0.14-0.7,0.25-1.4,0.35-2.08c0.02-0.12,0.04-0.24,0.06-0.35    c0.11-0.81,0.19-1.6,0.25-2.39c0.02-0.2,0.02-0.4,0.03-0.59c0.04-0.58,0.07-1.16,0.08-1.72v-0.82c-0.01-0.49-0.02-0.98-0.04-1.46    c-0.01-0.29-0.03-0.57-0.05-0.86c-0.03-0.46-0.08-0.93-0.13-1.39c-0.03-0.27-0.06-0.54-0.1-0.81c-0.07-0.5-0.15-1-0.25-1.49    c-0.04-0.21-0.07-0.43-0.11-0.64c-0.15-0.68-0.31-1.36-0.5-2.03c-0.05-0.15-0.11-0.3-0.16-0.46c-0.15-0.51-0.32-1.01-0.5-1.51    c-0.09-0.24-0.19-0.48-0.29-0.71c-0.16-0.4-0.32-0.8-0.51-1.19c-0.11-0.26-0.23-0.5-0.36-0.75c-0.18-0.37-0.38-0.73-0.58-1.09    c-0.14-0.25-0.27-0.49-0.41-0.72c-0.23-0.37-0.47-0.73-0.71-1.09c-0.14-0.21-0.27-0.42-0.42-0.62c-0.34-0.47-0.7-0.93-1.08-1.38    c-0.06-0.07-0.11-0.15-0.17-0.22c-0.65-0.77-1.36-1.47-2.1-2.15c-2.97-2.75-6.58-4.78-10.7-6.03c-0.73-0.22-1.47-0.42-2.22-0.59    c-0.01-0.01-0.01-0.01-0.02-0.01c-6.13-1.41-13.22-1.25-20.87,0.56c-0.2,0.05-0.4,0.1-0.6,0.15c-0.18,0.05-0.36,0.09-0.55,0.14    c-0.18,0.05-0.37,0.1-0.55,0.15c-11.37,3.03-23.24,9.49-33.62,18.34c-9.68,8.26-14.37,15.47-14.76,22.68    c-0.47,8.9,5.48,15.19,11.24,21.27c1.57,1.67,3.2,3.39,4.74,5.19c1.53,1.8,2.98,3.68,4.37,5.5c5.1,6.65,10.37,13.52,19.23,14.45    c0.64,0.07,1.28,0.1,1.93,0.1c6.67,0,13.97-3.56,22.79-11.08c8.74-7.45,16-16.24,20.93-25.25c20.73,7.03,45.1,8.02,64.56,8.02    c12.43,0,28.76-0.36,44.88-3.14c3.31-0.56,5.67-3.37,5.79-6.59c0.01-0.17,0.02-0.34,0.01-0.51    C306.68,428.85,306.65,428.68,306.63,428.52z M184.57,407.48c-0.16,3.66-1.18,7.81-3.07,12.25c-1.94,4.55-4.69,9.15-8.09,13.57    c-3.4,4.42-7.45,8.67-11.98,12.53c-8.37,7.14-12.47,7.9-14.17,7.72c-2.88-0.3-5.99-4.36-9.59-9.05c-1.5-1.96-3.06-3.99-4.83-6.06    c-1.77-2.08-3.52-3.93-5.22-5.73c-4.07-4.3-7.58-8.01-7.43-10.9c0.09-1.71,1.5-5.64,9.87-12.77c9.23-7.88,19.68-13.49,29.44-15.81    c0.01-0.01,0.01-0.01,0.02-0.01c0.12-0.03,0.22-0.05,0.33-0.07c0.6-0.14,1.19-0.26,1.77-0.37c0.28-0.05,0.55-0.1,0.83-0.15    c0.43-0.07,0.86-0.14,1.28-0.19c0.28-0.04,0.55-0.08,0.83-0.11c0.46-0.06,0.91-0.1,1.36-0.13c0.2-0.02,0.41-0.04,0.62-0.06    c0.62-0.03,1.24-0.05,1.84-0.06c0.18,0,0.36,0.01,0.54,0.01c0.47,0.01,0.93,0.02,1.38,0.05c0.21,0.02,0.41,0.03,0.61,0.05    c0.48,0.04,0.96,0.09,1.42,0.16c0.12,0.02,0.24,0.03,0.35,0.05c0.57,0.09,1.12,0.21,1.66,0.34c0.13,0.03,0.25,0.07,0.38,0.11    c0.42,0.11,0.82,0.23,1.21,0.37c0.14,0.05,0.28,0.1,0.42,0.15c0.45,0.18,0.89,0.36,1.31,0.57c0.04,0.02,0.08,0.03,0.11,0.05    c0.45,0.23,0.88,0.48,1.29,0.75c0.11,0.07,0.21,0.15,0.32,0.22c0.3,0.21,0.59,0.43,0.86,0.67c0.11,0.09,0.22,0.18,0.32,0.27    c0.33,0.3,0.65,0.61,0.94,0.95c0.01,0.02,0.03,0.03,0.05,0.05C183.77,399.51,184.77,403.15,184.57,407.48z"/><path class="st6" d="M410.26,298.66c3.53-9.45,2.36-18.87-3.4-27.22c-10.23-14.84-32.38-21.66-58.8-3.48    c-10.32,7.1-18.63,15.85-23.95,24.9c-0.62-1.06-1.21-2.1-1.79-3.11c-4.61-7.99-8.52-14.78-12.12-20.48    c15.65-8.72,29-21.11,38.91-36.19c11.69-17.77,17.99-38.45,18.24-59.8c0.01-0.44,0.01-0.87,0.01-1.3    c0-14.03-2.56-27.63-7.61-40.51l11.8-11.81c8.32-8.32,12.9-19.38,12.9-31.15c0-11.78-4.58-22.85-12.9-31.18    c-8.33-8.32-19.4-12.91-31.17-12.91c-11.78,0-22.84,4.59-31.16,12.91L297.8,68.76c-13.26-5.39-27.32-8.13-41.8-8.13    s-28.55,2.74-41.8,8.13l-11.43-11.42c-8.31-8.33-19.38-12.92-31.15-12.92s-22.84,4.59-31.17,12.92    c-8.32,8.32-12.9,19.39-12.9,31.17c0,11.77,4.58,22.83,12.9,31.15l11.8,11.81c-5.05,12.88-7.61,26.49-7.61,40.51    c0,0.43,0,0.86,0.01,1.3c0.06,5.22,0.49,10.47,1.27,15.61c0.53,3.54,3.65,6.05,7.14,5.93c0.16-0.01,0.33-0.01,0.5-0.03    c0.11-0.01,0.22-0.02,0.33-0.04c0.06-0.01,0.11-0.02,0.17-0.03c3.73-0.66,6.27-4.18,5.7-7.94c-0.69-4.51-1.06-9.13-1.11-13.71    v-0.13c-0.01-0.33-0.01-0.65-0.01-0.96c0-13.69,2.78-26.92,8.27-39.32c3.14-7.12,7.15-13.85,11.93-20.03    c0.61-0.79,1.23-1.58,1.86-2.35c4.44-5.43,9.48-10.38,15.02-14.74c0.87-0.69,1.75-1.35,2.64-2.01    c5.38-3.96,11.13-7.35,17.18-10.11c1.12-0.52,2.31-1.03,3.56-1.54c11.69-4.81,24.1-7.25,36.9-7.25s25.21,2.44,36.92,7.25    c1.23,0.51,2.42,1.02,3.57,1.55c0.87,0.4,1.75,0.81,2.61,1.24c6.06,2.99,11.83,6.64,17.19,10.88c4.74,3.73,9.12,7.9,13.07,12.44    c1.32,1.51,2.6,3.07,3.82,4.66c0.59,0.77,1.18,1.55,1.75,2.34c4,5.51,7.41,11.44,10.16,17.68c5.49,12.39,8.27,25.62,8.27,39.31    c0,0.31,0,0.63-0.01,0.96v0.13c-0.41,37.24-22.49,71.46-56.26,87.19c-3.91,1.82-7.95,3.39-12.01,4.65    c-8.18,2.57-16.69,4.04-25.36,4.36c-1.23,0.05-2.48,0.07-3.72,0.07c-9.95,0-19.73-1.49-29.1-4.44c-4.04-1.25-8.08-2.82-11.99-4.64    c-16.98-7.91-31.25-20.48-41.29-36.36c-2.06-3.27-6.38-4.25-9.65-2.18c0,0,0,0-0.01,0c-0.14,0.09-0.28,0.19-0.41,0.29    c-0.14,0.1-0.26,0.21-0.39,0.32c-2.6,2.21-3.26,6.08-1.37,9.05c10.02,15.86,23.75,28.84,40.01,37.89    c-3.6,5.71-7.51,12.49-12.12,20.48c-0.58,1.01-1.17,2.05-1.79,3.11c-5.32-9.05-13.63-17.8-23.94-24.9    c-26.43-18.19-48.58-11.36-58.82,3.48c-5.75,8.35-6.92,17.77-3.39,27.22c3.43,9.19,11.19,18,23.06,26.16    c12.07,8.32,25.26,13.25,36.93,14.13c-2.76,5.88-5.02,11.52-6.75,16.86c-1.11,3.47,0.63,7.18,3.91,8.57    c0.16,0.07,0.31,0.14,0.47,0.19c0.04,0.02,0.09,0.03,0.14,0.05c0.11,0.04,0.23,0.06,0.34,0.09c3.58,0.96,7.32-1.03,8.47-4.6    c2.29-7.12,5.68-14.89,10.09-23.16c0.4-0.15,0.78-0.32,1.17-0.48c0.14-0.06,0.28-0.12,0.42-0.18c1.37-0.61,2.66-1.31,3.85-2.1    c0.12-0.08,0.22-0.16,0.33-0.23c0.47-0.33,0.93-0.66,1.37-1.01c0.15-0.12,0.3-0.24,0.44-0.36c0.4-0.33,0.78-0.67,1.15-1.02    c0.14-0.14,0.29-0.28,0.44-0.43c0.35-0.35,0.69-0.72,1.02-1.1c0.13-0.15,0.27-0.3,0.39-0.45c0.35-0.42,0.68-0.85,0.99-1.3    c0.08-0.11,0.18-0.21,0.25-0.33c0.41-0.59,0.78-1.2,1.13-1.82c0.03-0.06,0.06-0.11,0.09-0.16c0.33-0.6,0.62-1.2,0.89-1.82    c0.05-0.11,0.1-0.21,0.14-0.32c0.25-0.6,0.49-1.22,0.69-1.84c0.04-0.12,0.07-0.24,0.11-0.35c0.19-0.64,0.37-1.29,0.52-1.95    c0.01-0.07,0.03-0.14,0.04-0.21c0.13-0.62,0.24-1.25,0.32-1.89c0.02-0.13,0.04-0.26,0.06-0.38c0.07-0.66,0.12-1.32,0.15-1.99    c0.01-0.17,0.02-0.34,0.02-0.5c0.02-0.67,0.02-1.35-0.01-2.03c-0.01-0.16-0.02-0.32-0.03-0.48c-0.04-0.71-0.09-1.43-0.19-2.15    v-0.09c2.8-4.8,5.37-9.25,7.66-13.24c4.92-8.54,9.04-15.69,12.71-21.4c0.18,0.08,0.37,0.14,0.56,0.22    c0.86,0.34,1.73,0.66,2.6,0.98c0.41,0.15,0.81,0.31,1.22,0.45c1.27,0.45,2.55,0.88,3.82,1.27c10.7,3.37,21.9,5.08,33.28,5.08    s22.58-1.71,33.26-5.07c1.28-0.4,2.56-0.83,3.83-1.28c0.41-0.14,0.82-0.3,1.22-0.45c0.88-0.32,1.75-0.64,2.61-0.98    c0.19-0.08,0.38-0.14,0.56-0.22c3.67,5.71,7.79,12.86,12.71,21.4c2.29,3.99,4.86,8.44,7.66,13.24c0,0.03,0,0.06-0.01,0.09    c-0.08,0.72-0.14,1.42-0.18,2.12c-0.01,0.18-0.02,0.35-0.03,0.53c-0.03,0.67-0.03,1.33-0.01,1.98c0,0.19,0.01,0.37,0.02,0.56    c0.03,0.65,0.08,1.29,0.15,1.93c0.02,0.15,0.04,0.31,0.07,0.47c0.08,0.58,0.17,1.16,0.29,1.73c0.03,0.12,0.05,0.25,0.08,0.37    c0.13,0.62,0.3,1.22,0.48,1.81c0.05,0.16,0.09,0.31,0.14,0.46c0.2,0.6,0.42,1.18,0.65,1.75l0.18,0.42    c0.26,0.59,0.55,1.17,0.86,1.74c0.04,0.07,0.08,0.15,0.13,0.22c0.34,0.62,0.71,1.22,1.11,1.8c0.09,0.14,0.19,0.26,0.29,0.38    c0.3,0.42,0.6,0.83,0.93,1.23c0.15,0.18,0.31,0.35,0.46,0.53c0.31,0.34,0.62,0.68,0.94,1.01c0.17,0.17,0.34,0.33,0.52,0.49    c0.34,0.33,0.69,0.64,1.05,0.94c0.17,0.15,0.34,0.29,0.52,0.43c0.4,0.32,0.82,0.63,1.25,0.92c0.15,0.11,0.29,0.21,0.44,0.31    c1.18,0.78,2.45,1.48,3.79,2.07c0.18,0.09,0.37,0.16,0.56,0.24c0.36,0.15,0.71,0.3,1.07,0.44c8.5,15.92,13.09,29.77,13.71,41.3    c-0.09-0.01-0.18-0.01-0.28-0.01c-0.69-0.05-1.37-0.09-2.04-0.11c-0.36-0.01-0.71-0.01-1.07-0.02c-0.43,0-0.86,0-1.28,0.01    c-0.38,0.01-0.75,0.02-1.13,0.04c-0.4,0.02-0.79,0.04-1.18,0.07c-0.37,0.03-0.74,0.06-1.1,0.1c-0.42,0.04-0.83,0.1-1.24,0.15    c-0.32,0.05-0.64,0.08-0.95,0.13c-0.68,0.11-1.35,0.24-2.01,0.39c-0.28,0.06-0.55,0.14-0.83,0.21c-0.42,0.1-0.84,0.21-1.25,0.33    c-0.29,0.09-0.57,0.18-0.85,0.27c-0.4,0.13-0.8,0.26-1.19,0.41c-0.26,0.09-0.52,0.19-0.77,0.29c-0.44,0.18-0.88,0.37-1.31,0.57    c-0.18,0.08-0.37,0.16-0.56,0.25c-0.61,0.3-1.21,0.61-1.79,0.95c-0.08,0.05-0.16,0.1-0.25,0.15c-0.49,0.3-0.98,0.6-1.45,0.93    c-0.17,0.11-0.33,0.23-0.5,0.35c-0.38,0.28-0.76,0.56-1.12,0.86c-0.17,0.14-0.35,0.28-0.51,0.42c-0.36,0.31-0.71,0.62-1.05,0.95    c-0.15,0.14-0.3,0.28-0.45,0.42c-0.42,0.43-0.83,0.87-1.23,1.32c-0.04,0.05-0.08,0.09-0.13,0.14c-4.64,5.45-6.74,12.61-6.29,20.69    c0.27,5.01,1.54,10.36,3.79,15.89c0.07,0.16,0.12,0.32,0.19,0.48c0.05,0.11,0.09,0.22,0.14,0.33c0.01,0.02,0.02,0.04,0.03,0.05    c0.01,0.03,0.02,0.05,0.04,0.08c4.71,11.02,13.16,22.08,23.8,31.15c8.82,7.52,16.12,11.08,22.79,11.08c0.65,0,1.29-0.03,1.93-0.1    c8.86-0.93,14.13-7.8,19.23-14.45c1.39-1.82,2.84-3.7,4.37-5.5s3.16-3.52,4.74-5.19c5.76-6.08,11.71-12.37,11.24-21.26    c-0.39-7.22-5.08-14.43-14.76-22.68c-9.18-7.83-19.52-13.79-29.66-17.17c0.04-12.29-3.69-26.45-11.12-42.27    c11.68-0.88,24.88-5.81,36.95-14.13C399.07,316.65,406.83,307.85,410.26,298.66z M179.84,90.76c-0.25,0.24-0.51,0.47-0.76,0.71    c-0.77,0.74-1.53,1.48-2.28,2.24c-0.1,0.1-0.19,0.2-0.29,0.3c-0.65,0.66-1.29,1.33-1.93,2.01c-0.26,0.29-0.53,0.58-0.79,0.87    c-0.33,0.36-0.67,0.72-1,1.09l-5.33-5.33c-2.29-2.29-2.29-6.01,0-8.3c1.15-1.14,2.65-1.72,4.16-1.72c1.5,0,3.01,0.58,4.15,1.72    l5.28,5.28C180.64,90,180.24,90.38,179.84,90.76z M200.84,75.23c-1.09,0.63-2.17,1.28-3.25,1.94c-0.34,0.21-0.68,0.43-1.02,0.65    c-0.74,0.47-1.49,0.95-2.22,1.44l-1.11,0.75c-0.4,0.27-0.79,0.54-1.19,0.81l-6.38-6.37c-7.74-7.74-20.34-7.74-28.11,0    c-7.74,7.75-7.74,20.35,0,28.1l6.54,6.54c-0.28,0.42-0.56,0.83-0.83,1.25c-0.25,0.36-0.49,0.73-0.72,1.09    c-0.49,0.76-0.97,1.51-1.44,2.28c-0.21,0.33-0.42,0.66-0.62,1c-0.64,1.06-1.26,2.13-1.86,3.21c-0.02,0.03-0.03,0.06-0.05,0.08    l-8.23-8.23c-5.67-5.68-8.8-13.23-8.8-21.26c0-8.05,3.13-15.6,8.8-21.27c5.68-5.69,13.24-8.82,21.27-8.82    c8.03,0,15.58,3.13,21.25,8.82l7.99,7.98C200.86,75.23,200.85,75.23,200.84,75.23z M344.54,92.65l-5.33,5.33    c-0.33-0.37-0.67-0.73-1-1.1c-0.27-0.28-0.52-0.57-0.79-0.86c-0.61-0.65-1.23-1.3-1.86-1.94c-0.12-0.12-0.24-0.25-0.36-0.38    c-0.75-0.75-1.5-1.48-2.26-2.21c-0.28-0.27-0.56-0.52-0.83-0.78c-0.39-0.36-0.77-0.73-1.16-1.08l5.28-5.28    c2.29-2.29,6.02-2.29,8.31,0C346.83,86.64,346.83,90.36,344.54,92.65z M351.51,114.71c-0.2-0.34-0.41-0.67-0.62-1.01    c-0.47-0.76-0.94-1.51-1.43-2.26c-0.24-0.37-0.48-0.73-0.73-1.1c-0.27-0.42-0.55-0.83-0.83-1.25l6.54-6.54    c3.87-3.87,5.8-8.96,5.8-14.05c0-5.09-1.93-10.18-5.81-14.06c-7.76-7.73-20.36-7.73-28.1,0.01l-6.38,6.38    c-0.4-0.28-0.8-0.55-1.2-0.83c-0.36-0.24-0.72-0.49-1.08-0.73c-0.76-0.51-1.54-1.01-2.31-1.5c-0.31-0.19-0.61-0.39-0.92-0.58    c-1.09-0.67-2.19-1.33-3.31-1.97l7.99-7.99c5.68-5.68,13.23-8.81,21.26-8.81c8.03,0,15.59,3.13,21.27,8.81    c5.67,5.68,8.8,13.24,8.8,21.28c0,8.03-3.13,15.58-8.8,21.26l-8.23,8.23c-0.01-0.01-0.02-0.02-0.02-0.03    C352.79,116.87,352.16,115.79,351.51,114.71z M180.22,316.11c-0.26,1.48-0.76,2.79-1.54,3.93c-0.24,0.35-0.52,0.68-0.81,0.99    c-1.43,1.53-3.45,2.66-6.07,3.34c-10.1,2.66-25.43-1.68-39.06-11.08c-9.33-6.41-15.51-13.17-17.88-19.52    c-1.92-5.13-1.33-9.84,1.8-14.39c3.82-5.53,9.57-8.3,16.39-8.3c6.86,0,14.81,2.81,22.96,8.42c12.66,8.71,21.85,20.43,23.96,30.58    C180.44,312.32,180.52,314.34,180.22,316.11z M350.38,392.78c0.57,0.11,1.15,0.23,1.74,0.36c0.12,0.03,0.24,0.05,0.36,0.08    c0,0,0.01,0,0.02,0.01c9.76,2.32,20.21,7.93,29.44,15.81c8.37,7.13,9.78,11.06,9.87,12.77c0.15,2.89-3.36,6.6-7.43,10.9    c-1.7,1.8-3.45,3.65-5.22,5.73c-1.77,2.07-3.33,4.1-4.83,6.06c-3.6,4.69-6.71,8.75-9.59,9.05c-1.71,0.18-5.81-0.59-14.17-7.72    c-9.07-7.72-16.19-16.99-20.07-26.1c-1.4-3.3-2.32-6.44-2.77-9.34c-0.88-5.62,0.02-10.32,2.73-13.49c0-0.01,0.01-0.02,0.02-0.03    c0.3-0.34,0.63-0.67,0.97-0.98c0.09-0.08,0.19-0.16,0.28-0.24c0.3-0.25,0.6-0.49,0.92-0.71c0.09-0.06,0.18-0.13,0.27-0.19    c0.83-0.54,1.76-1.01,2.76-1.39c0.11-0.04,0.23-0.08,0.35-0.12c0.42-0.15,0.85-0.29,1.3-0.41c0.1-0.03,0.2-0.06,0.31-0.08    c0.55-0.14,1.11-0.26,1.7-0.35c0.08-0.02,0.18-0.03,0.26-0.04c0.49-0.07,1-0.13,1.51-0.17c0.19-0.02,0.38-0.03,0.56-0.05    c0.47-0.03,0.95-0.04,1.44-0.05c0.17,0,0.33-0.01,0.5-0.01c0.61,0.01,1.23,0.03,1.86,0.06c0.19,0.02,0.4,0.04,0.6,0.06    c0.45,0.03,0.91,0.07,1.37,0.13c0.28,0.03,0.55,0.07,0.83,0.11c0.42,0.05,0.85,0.12,1.28,0.19    C349.82,392.68,350.1,392.73,350.38,392.78z M379.26,313.3c-13.63,9.39-28.96,13.73-39.09,11.06c-2.18-0.57-3.96-1.45-5.32-2.63    c-0.59-0.52-1.11-1.08-1.54-1.71c-0.43-0.62-0.78-1.3-1.05-2.02c-0.8-2.19-0.88-4.84-0.23-7.93c2.11-10.14,11.3-21.86,23.96-30.58    c8.15-5.61,16.1-8.41,22.96-8.41c6.82,0,12.57,2.77,16.38,8.3c3.14,4.55,3.73,9.26,1.81,14.39c-2.37,6.35-8.55,13.11-17.88,19.52    C379.26,313.29,379.26,313.29,379.26,313.3z"/><path class="st6" d="M297.66,317.18c-6.09-5.93-14.12-9.15-22.62-9c-7.17,0.1-13.94,2.57-19.39,6.95    c-5.46-4.14-12.12-6.41-19.13-6.41c-0.15,0-0.3,0.01-0.46,0.01c-8.49,0.12-16.43,3.54-22.35,9.63c-5.93,6.09-9.12,14.13-9,22.62    c0.22,15.77,10.49,32.81,30.53,50.64c0.12,0.11,0.25,0.21,0.38,0.32c0.25,0.22,0.51,0.42,0.78,0.63l0.21,0.17    c0.46,0.37,0.92,0.73,1.39,1.06c0.37,0.27,0.74,0.51,1.12,0.75l0.1,0.07c0.5,0.31,0.99,0.62,1.5,0.91    c0.4,0.23,0.81,0.44,1.22,0.65c0.54,0.28,1.08,0.53,1.64,0.78c0.4,0.18,0.8,0.34,1.19,0.5c0.59,0.23,1.19,0.44,1.8,0.64l0.14,0.04    c0.33,0.11,0.66,0.22,0.99,0.31c0.65,0.18,1.3,0.34,1.95,0.48l0.19,0.04c0.29,0.07,0.58,0.13,0.86,0.18    c0.84,0.15,1.62,0.24,2.2,0.31l0.1,0.01c0.25,0.03,0.5,0.07,0.76,0.09c0.94,0.07,1.82,0.11,2.61,0.11h0.48    c0.99-0.02,1.99-0.08,3.04-0.2c0.26-0.03,0.52-0.06,0.78-0.11l0.1-0.01c0.63-0.09,1.38-0.2,2.17-0.37    c0.29-0.06,0.58-0.13,0.87-0.21l0.19-0.05c0.65-0.15,1.29-0.33,1.92-0.52c0.34-0.11,0.68-0.23,1.02-0.35l0.14-0.05    c0.58-0.21,1.17-0.43,1.75-0.68c0.4-0.17,0.79-0.35,1.21-0.54c0.53-0.26,1.06-0.53,1.58-0.81c0.41-0.23,0.82-0.46,1.22-0.7    c0.49-0.3,0.97-0.62,1.5-0.97c0.39-0.27,0.77-0.53,1.16-0.82c0.46-0.35,0.91-0.73,1.38-1.13l0.19-0.16    c0.27-0.22,0.53-0.44,0.76-0.65c0.14-0.11,0.26-0.22,0.37-0.32c19.53-18.4,29.31-35.72,29.09-51.49    C307.17,331.04,303.75,323.1,297.66,317.18z M268.73,380.7c-0.09,0.08-0.18,0.16-0.28,0.25c-0.11,0.1-0.22,0.19-0.33,0.28    l-0.3,0.26c-0.25,0.2-0.49,0.41-0.74,0.6c-0.2,0.15-0.41,0.29-0.67,0.47c-0.27,0.18-0.54,0.37-0.81,0.53    c-0.23,0.14-0.46,0.26-0.7,0.39c-0.29,0.16-0.59,0.32-0.87,0.45c-0.22,0.11-0.45,0.21-0.66,0.3c-0.33,0.14-0.66,0.27-0.99,0.38    l-0.15,0.06c-0.16,0.05-0.32,0.11-0.49,0.17c-0.36,0.11-0.72,0.2-1.08,0.29l-0.6,0.15c-0.4,0.08-0.81,0.14-1.22,0.2    c-0.15,0.02-0.29,0.04-0.44,0.07l-0.03,0.01c-0.62,0.06-1.19,0.1-1.64,0.11h-0.1c-0.53,0.01-1.09-0.01-1.64-0.06l-0.1-0.01    c-0.15-0.02-0.3-0.04-0.46-0.06c-0.41-0.04-0.82-0.09-1.23-0.16c-0.09-0.02-0.18-0.04-0.27-0.06l-0.32-0.08    c-0.36-0.07-0.73-0.16-1.09-0.26c-0.16-0.04-0.32-0.1-0.48-0.15l-0.16-0.05c-0.33-0.11-0.67-0.23-1.01-0.36    c-0.22-0.09-0.44-0.18-0.65-0.27c-0.31-0.14-0.61-0.28-0.92-0.44c-0.23-0.12-0.46-0.24-0.68-0.36c-0.28-0.16-0.56-0.34-0.83-0.51    l-0.11-0.07c-0.19-0.12-0.38-0.24-0.57-0.38c-0.26-0.19-0.51-0.39-0.79-0.62l-0.27-0.2c-0.12-0.1-0.24-0.19-0.39-0.32    c-0.08-0.07-0.16-0.14-0.24-0.2c-16.66-14.86-25.55-28.78-25.71-40.27c-0.07-4.75,1.72-9.25,5.04-12.66    c3.31-3.41,7.76-5.33,12.51-5.39c5.47-0.07,10.61,2.33,14.08,6.61c1.33,1.65,3.33,2.6,5.44,2.6h0.1c2.15-0.03,4.16-1.05,5.46-2.75    c3.35-4.38,8.42-6.94,13.9-7.01c4.77-0.03,9.25,1.72,12.66,5.03c3.41,3.32,5.33,7.77,5.39,12.52    C293.45,351.21,284.97,365.37,268.73,380.7z"/><path class="st2" d="M345.09,132.67c-2.75-6.24-6.16-12.17-10.16-17.68c-0.57-0.79-1.16-1.57-1.75-2.34    c-1.22-1.59-2.5-3.15-3.82-4.66c-3.95-4.54-8.33-8.71-13.07-12.44c-5.36-4.24-11.13-7.89-17.19-10.88    c-0.86-0.43-1.74-0.84-2.61-1.24c-1.15-0.53-2.34-1.04-3.57-1.55c-11.71-4.81-24.12-7.25-36.92-7.25s-25.21,2.44-36.9,7.25    c-1.25,0.51-2.44,1.02-3.56,1.54c-6.05,2.76-11.8,6.15-17.18,10.11c-0.89,0.66-1.77,1.32-2.64,2.01    c-5.54,4.36-10.58,9.31-15.02,14.74c-0.63,0.77-1.25,1.56-1.86,2.35c-4.78,6.18-8.79,12.91-11.93,20.03    c-5.49,12.4-8.27,25.63-8.27,39.32c0,0.31,0,0.63,0.01,0.96v0.13c0.05,4.58,0.42,9.2,1.11,13.71c0.57,3.76-1.97,7.28-5.7,7.94    c-0.06,0.01-0.11,0.02-0.17,0.03c-0.11,0.02-0.22,0.03-0.33,0.04c-0.17,0.02-0.34,0.02-0.5,0.03c0,0.02,0,0.04,0.01,0.06    c0.53,2.79,1.21,5.62,2.02,8.43c0.01,0.04,0.02,0.07,0.03,0.11c0.15-0.08,0.29-0.18,0.45-0.25c0.15-0.07,0.31-0.12,0.47-0.18    c1.23-0.49,2.59-0.65,3.91-0.38c0.44,0.09,0.88,0.22,1.31,0.4c0.42,0.17,0.82,0.39,1.2,0.64c0.39,0.25,0.75,0.55,1.07,0.87    c0.32,0.32,0.61,0.68,0.87,1.06c0.25,0.38,0.47,0.79,0.64,1.21c0.18,0.43,0.31,0.87,0.4,1.31c0.09,0.45,0.14,0.91,0.14,1.37    s-0.05,0.92-0.14,1.37c-0.09,0.44-0.22,0.89-0.4,1.31c-0.17,0.42-0.39,0.83-0.64,1.21c-0.26,0.38-0.55,0.74-0.87,1.06    c-0.32,0.32-0.68,0.62-1.07,0.87c-0.38,0.25-0.78,0.47-1.2,0.64c-0.1,0.04-0.21,0.07-0.32,0.11c-0.16,0.05-0.32,0.12-0.48,0.16    c-0.16,0.05-0.33,0.1-0.49,0.13c0.01,0.02,0.02,0.05,0.04,0.08c0.94,2.01,1.99,3.98,3.11,5.85c0.01,0.03,0.03,0.05,0.04,0.07    c0.13-0.11,0.25-0.22,0.39-0.32c0.13-0.1,0.27-0.2,0.41-0.29c0.01,0,0.01,0,0.01,0c3.27-2.07,7.59-1.09,9.65,2.18    c10.04,15.88,24.31,28.45,41.29,36.36c3.91,1.82,7.95,3.39,11.99,4.64c9.37,2.95,19.15,4.44,29.1,4.44c1.24,0,2.49-0.02,3.72-0.07    c8.67-0.32,17.18-1.79,25.36-4.36c4.06-1.26,8.1-2.83,12.01-4.65c33.77-15.73,55.85-49.95,56.26-87.19v-0.13    c0.01-0.33,0.01-0.65,0.01-0.96C353.36,158.29,350.58,145.06,345.09,132.67z M193.8,155.35c-2.53,2.92-6.95,3.24-9.87,0.71    c-2.93-2.53-3.24-6.95-0.71-9.87c7.28-8.41,14.82-12.55,22.53-12.3c7.39,0.24,14.27,4.5,20.45,12.65    c2.33,3.08,1.73,7.47-1.35,9.81c-1.27,0.95-2.75,1.42-4.23,1.42c-2.11,0-4.2-0.96-5.58-2.77c-2.41-3.18-6.05-7-9.75-7.12    C201.24,147.72,196.81,151.87,193.8,155.35z M303.63,222.15l-0.01,0.18c0.15,6.32-2.29,12.55-6.71,17.13    c-4.54,4.69-10.63,7.27-17.17,7.27h-47.48c-6.54,0-12.63-2.58-17.17-7.27c-4.42-4.58-6.86-10.81-6.71-17.14l-0.01-0.19    c-0.05-0.92-0.14-2.84-0.14-5.5c0-39.41,17.86-62.94,47.77-62.94c29.91,0,47.77,23.53,47.77,62.94    C303.77,219.31,303.68,221.22,303.63,222.15z M327.72,159.09c-1.27,0.96-2.75,1.42-4.22,1.42c-2.12,0-4.21-0.95-5.59-2.77    c-2.41-3.18-6.05-6.99-9.74-7.11c-4.09-0.11-8.48,3.99-11.5,7.47c-2.53,2.92-6.95,3.24-9.87,0.71c-2.92-2.54-3.24-6.96-0.71-9.88    c7.28-8.41,14.84-12.55,22.53-12.29c7.39,0.24,14.27,4.49,20.45,12.65C331.41,152.37,330.8,156.76,327.72,159.09z"/></g></g></svg>