<?xml version="1.0" ?><svg height="48" viewBox="0 0 48 48" width="48" xmlns="http://www.w3.org/2000/svg"><defs><style>.cls-1{fill:#fa5c75;}.cls-2{fill:#e93d5b;}</style></defs><title/><g data-name="6-Dribbble" id="_6-Dribbble"><circle class="cls-1" cx="24" cy="24" r="23"/><path class="cls-2" d="M42.436,28.6a23.72,23.72,0,0,0-12.38.542A36.482,36.482,0,0,0,24.091,15.9,23.742,23.742,0,0,0,33.523,3.59a.972.972,0,0,0,.016-.518c-.492-.224-.99-.435-1.5-.625a.987.987,0,0,0-.412.508,21.766,21.766,0,0,1-8.763,11.362A31.244,31.244,0,0,0,10.744,5.21Q9.9,5.8,9.119,6.469a1,1,0,0,0,.578.484,28.222,28.222,0,0,1,11.432,8.389c-.324.173-.636.361-.971.519A21.9,21.9,0,0,1,7.405,17.71,1,1,0,0,0,7.1,19.687a23.974,23.974,0,0,0,3.687.286,23.911,23.911,0,0,0,10.226-2.3c.474-.224.922-.485,1.377-.736a34.629,34.629,0,0,1,5.773,12.9c-.392.161-.787.314-1.174.5a23.8,23.8,0,0,0-12.5,14.058.976.976,0,0,0-.007.546c.485.221.977.429,1.479.616a.987.987,0,0,0,.425-.524A21.81,21.81,0,0,1,27.842,32.139c.24-.113.485-.2.727-.308a52.741,52.741,0,0,1,.477,14.243.975.975,0,0,0,.038.355q1.006-.227,1.98-.539a54.278,54.278,0,0,0-.592-14.777A21.725,21.725,0,0,1,42,30.555a1,1,0,0,0,.436-1.952Z"/></g></svg>