<?xml version="1.0" ?><svg id="Icons" style="enable-background:new 0 0 32 32;" version="1.1" viewBox="0 0 32 32" xml:space="preserve" xmlns="http://www.w3.org/2000/svg" xmlns:xlink="http://www.w3.org/1999/xlink"><path d="M16,1C7.7,1,1,7.7,1,16s6.7,15,15,15s15-6.7,15-15S24.3,1,16,1z M16,29c-1.6,0-3.3-2.4-4.2-6.3c1.3,0.2,2.7,0.3,4.2,0.3  s2.9-0.1,4.2-0.3C19.3,26.6,17.6,29,16,29z M16,21c-1.7,0-3.2-0.1-4.6-0.4c-0.2-1.4-0.4-3-0.4-4.6s0.1-3.2,0.4-4.6  c1.4-0.2,3-0.4,4.6-0.4s3.2,0.1,4.6,0.4c0.2,1.4,0.4,3,0.4,4.6s-0.1,3.2-0.4,4.6C19.2,20.9,17.7,21,16,21z M9.3,20.2  C5.4,19.3,3,17.6,3,16s2.4-3.3,6.3-4.2C9.1,13.1,9,14.5,9,16S9.1,18.9,9.3,20.2z M16,3c1.6,0,3.3,2.4,4.2,6.3C18.9,9.1,17.5,9,16,9  s-2.9,0.1-4.2,0.3C12.7,5.4,14.4,3,16,3z M22.7,11.8c3.9,1,6.3,2.7,6.3,4.2s-2.4,3.3-6.3,4.2c0.2-1.3,0.3-2.7,0.3-4.2  S22.9,13.1,22.7,11.8z M28.3,11.9c-1.5-1-3.5-1.8-6-2.3c-0.5-2.4-1.3-4.5-2.3-6C24,5,27,8,28.3,11.9z M11.9,3.7  c-1,1.5-1.8,3.5-2.3,6c-2.4,0.5-4.5,1.3-6,2.3C5,8,8,5,11.9,3.7z M3.7,20.1c1.5,1,3.5,1.8,6,2.3c0.5,2.4,1.3,4.5,2.3,6  C8,27,5,24,3.7,20.1z M20.1,28.3c1-1.5,1.8-3.5,2.3-6c2.4-0.5,4.5-1.3,6-2.3C27,24,24,27,20.1,28.3z"/></svg>